<svg data-v-fde0c5aa="" xmlns="http://www.w3.org/2000/svg" viewBox="0 0 300 300" class="iconLeft"><!----><defs data-v-fde0c5aa=""><!----></defs><rect data-v-fde0c5aa="" fill="transparent" x="0" y="0" width="300px" height="300px" class="logo-background-square"></rect><defs data-v-fde0c5aa=""><!----></defs><g data-v-fde0c5aa="" id="ec034958-708b-454b-9ca1-76b7583decb6" fill="#000000" transform="matrix(2.7081113998843294,0,0,2.7081113998843294,107.39792804009625,127.82056747998796)"><path d="M2.98 13.09L2.98 13.09Q2.79 13.09 2.69 13.01L2.69 13.01L2.69 13.01Q2.59 12.92 2.53 12.74L2.53 12.74L0.55 6.24L0.52 6.10L0.52 6.10Q0.52 5.98 0.60 5.89L0.60 5.89L0.60 5.89Q0.69 5.81 0.81 5.81L0.81 5.81L1.39 5.81L1.39 5.81Q1.53 5.81 1.62 5.89L1.62 5.89L1.62 5.89Q1.71 5.96 1.72 6.03L1.72 6.03L3.30 11.38L4.98 6.10L4.98 6.10Q5.01 5.99 5.11 5.90L5.11 5.90L5.11 5.90Q5.21 5.81 5.38 5.81L5.38 5.81L5.82 5.81L5.82 5.81Q5.99 5.81 6.09 5.90L6.09 5.90L6.09 5.90Q6.19 5.99 6.22 6.10L6.22 6.10L7.90 11.38L9.48 6.03L9.48 6.03Q9.49 5.96 9.58 5.89L9.58 5.89L9.58 5.89Q9.67 5.81 9.81 5.81L9.81 5.81L10.39 5.81L10.39 5.81Q10.51 5.81 10.60 5.89L10.60 5.89L10.60 5.89Q10.68 5.98 10.68 6.10L10.68 6.10L10.65 6.24L8.67 12.74L8.67 12.74Q8.61 12.92 8.51 13.01L8.51 13.01L8.51 13.01Q8.41 13.09 8.22 13.09L8.22 13.09L7.71 13.09L7.71 13.09Q7.35 13.09 7.24 12.74L7.24 12.74L5.60 7.67L3.96 12.74L3.96 12.74Q3.85 13.09 3.49 13.09L3.49 13.09L2.98 13.09ZM15.13 13.23L15.13 13.23Q13.71 13.23 12.85 12.34L12.85 12.34L12.85 12.34Q12.00 11.45 11.91 9.91L11.91 9.91L11.90 9.44L11.91 8.97L11.91 8.97Q12.00 7.46 12.85 6.57L12.85 6.57L12.85 6.57Q13.71 5.67 15.13 5.67L15.13 5.67L15.13 5.67Q16.67 5.67 17.52 6.65L17.52 6.65L17.52 6.65Q18.37 7.63 18.37 9.31L18.37 9.31L18.37 9.56L18.37 9.56Q18.37 9.70 18.28 9.79L18.28 9.79L18.28 9.79Q18.19 9.88 18.05 9.88L18.05 9.88L13.19 9.88L13.19 10.01L13.19 10.01Q13.23 10.92 13.75 11.56L13.75 11.56L13.75 11.56Q14.27 12.21 15.12 12.21L15.12 12.21L15.12 12.21Q15.78 12.21 16.19 11.95L16.19 11.95L16.19 11.95Q16.60 11.69 16.81 11.41L16.81 11.41L16.81 11.41Q16.94 11.24 17.01 11.21L17.01 11.21L17.01 11.21Q17.08 11.17 17.25 11.17L17.25 11.17L17.86 11.17L17.86 11.17Q17.99 11.17 18.08 11.24L18.08 11.24L18.08 11.24Q18.17 11.31 18.17 11.42L18.17 11.42L18.17 11.42Q18.17 11.73 17.79 12.17L17.79 12.17L17.79 12.17Q17.42 12.60 16.72 12.91L16.72 12.91L16.72 12.91Q16.03 13.23 15.13 13.23L15.13 13.23ZM13.19 8.93L17.09 8.93L17.09 8.89L17.09 8.89Q17.09 7.91 16.56 7.29L16.56 7.29L16.56 7.29Q16.03 6.68 15.13 6.68L15.13 6.68L15.13 6.68Q14.22 6.68 13.71 7.29L13.71 7.29L13.71 7.29Q13.19 7.91 13.19 8.89L13.19 8.89L13.19 8.93ZM23.63 13.23L23.63 13.23Q22.12 13.23 21.32 12.17L21.32 12.17L21.32 12.77L21.32 12.77Q21.32 12.91 21.23 13.00L21.23 13.00L21.23 13.00Q21.14 13.09 21.00 13.09L21.00 13.09L20.41 13.09L20.41 13.09Q20.27 13.09 20.18 13.00L20.18 13.00L20.18 13.00Q20.09 12.91 20.09 12.77L20.09 12.77L20.09 3.47L20.09 3.47Q20.09 3.32 20.18 3.23L20.18 3.23L20.18 3.23Q20.27 3.15 20.41 3.15L20.41 3.15L21.04 3.15L21.04 3.15Q21.18 3.15 21.27 3.24L21.27 3.24L21.27 3.24Q21.36 3.33 21.36 3.47L21.36 3.47L21.36 6.71L21.36 6.71Q22.15 5.67 23.63 5.67L23.63 5.67L23.63 5.67Q25.10 5.67 25.84 6.63L25.84 6.63L25.84 6.63Q26.57 7.59 26.61 9.03L26.61 9.03L26.61 9.03Q26.63 9.18 26.63 9.45L26.63 9.45L26.63 9.45Q26.63 9.72 26.61 9.87L26.61 9.87L26.61 9.87Q26.57 11.31 25.84 12.27L25.84 12.27L25.84 12.27Q25.10 13.23 23.63 13.23L23.63 13.23ZM23.37 12.14L23.37 12.14Q24.37 12.14 24.84 11.51L24.84 11.51L24.84 11.51Q25.30 10.88 25.34 9.86L25.34 9.86L25.34 9.86Q25.35 9.72 25.35 9.45L25.35 9.45L25.35 9.45Q25.35 6.76 23.37 6.76L23.37 6.76L23.37 6.76Q22.41 6.76 21.90 7.38L21.90 7.38L21.90 7.38Q21.39 8.01 21.36 8.86L21.36 8.86L21.36 8.86Q21.35 9.02 21.35 9.41L21.35 9.41L21.35 9.41Q21.35 9.79 21.36 9.94L21.36 9.94L21.36 9.94Q21.39 10.84 21.89 11.49L21.89 11.49L21.89 11.49Q22.39 12.14 23.37 12.14L23.37 12.14ZM31.30 13.23L31.30 13.23Q29.81 13.23 28.97 12.38L28.97 12.38L28.97 12.38Q28.13 11.54 28.08 10.01L28.08 10.01L28.07 9.45L28.08 8.89L28.08 8.89Q28.13 7.36 28.97 6.52L28.97 6.52L28.97 6.52Q29.81 5.67 31.30 5.67L31.30 5.67L31.30 5.67Q32.31 5.67 33.01 6.03L33.01 6.03L33.01 6.03Q33.70 6.38 34.04 6.92L34.04 6.92L34.04 6.92Q34.38 7.45 34.41 7.98L34.41 7.98L34.41 7.98Q34.43 8.11 34.32 8.20L34.32 8.20L34.32 8.20Q34.22 8.30 34.09 8.30L34.09 8.30L33.47 8.30L33.47 8.30Q33.33 8.30 33.26 8.24L33.26 8.24L33.26 8.24Q33.19 8.18 33.12 8.01L33.12 8.01L33.12 8.01Q32.87 7.32 32.43 7.04L32.43 7.04L32.43 7.04Q31.99 6.75 31.32 6.75L31.32 6.75L31.32 6.75Q30.44 6.75 29.92 7.29L29.92 7.29L29.92 7.29Q29.40 7.84 29.36 8.96L29.36 8.96L29.34 9.45L29.36 9.94L29.36 9.94Q29.40 11.06 29.92 11.61L29.92 11.61L29.92 11.61Q30.44 12.15 31.32 12.15L31.32 12.15L31.32 12.15Q32.00 12.15 32.44 11.87L32.44 11.87L32.44 11.87Q32.87 11.58 33.12 10.89L33.12 10.89L33.12 10.89Q33.19 10.72 33.26 10.66L33.26 10.66L33.26 10.66Q33.33 10.60 33.47 10.60L33.47 10.60L34.09 10.60L34.09 10.60Q34.22 10.60 34.32 10.70L34.32 10.70L34.32 10.70Q34.43 10.79 34.41 10.92L34.41 10.92L34.41 10.92Q34.38 11.44 34.04 11.97L34.04 11.97L34.04 11.97Q33.70 12.50 33.01 12.87L33.01 12.87L33.01 12.87Q32.31 13.23 31.30 13.23L31.30 13.23ZM36.43 13.09L36.43 13.09Q36.29 13.09 36.20 13.00L36.20 13.00L36.20 13.00Q36.11 12.91 36.11 12.77L36.11 12.77L36.11 3.47L36.11 3.47Q36.11 3.32 36.20 3.23L36.20 3.23L36.20 3.23Q36.29 3.15 36.43 3.15L36.43 3.15L37.07 3.15L37.07 3.15Q37.23 3.15 37.31 3.23L37.31 3.23L37.31 3.23Q37.39 3.32 37.39 3.47L37.39 3.47L37.39 6.73L37.39 6.73Q37.80 6.22 38.35 5.94L38.35 5.94L38.35 5.94Q38.91 5.67 39.72 5.67L39.72 5.67L39.72 5.67Q41.06 5.67 41.81 6.53L41.81 6.53L41.81 6.53Q42.56 7.39 42.56 8.81L42.56 8.81L42.56 12.77L42.56 12.77Q42.56 12.91 42.47 13.00L42.47 13.00L42.47 13.00Q42.38 13.09 42.24 13.09L42.24 13.09L41.58 13.09L41.58 13.09Q41.44 13.09 41.35 13.00L41.35 13.00L41.35 13.00Q41.26 12.91 41.26 12.77L41.26 12.77L41.26 8.89L41.26 8.89Q41.26 7.88 40.77 7.32L40.77 7.32L40.77 7.32Q40.28 6.76 39.35 6.76L39.35 6.76L39.35 6.76Q38.46 6.76 37.93 7.33L37.93 7.33L37.93 7.33Q37.39 7.90 37.39 8.89L37.39 8.89L37.39 12.77L37.39 12.77Q37.39 12.91 37.30 13.00L37.30 13.00L37.30 13.00Q37.21 13.09 37.07 13.09L37.07 13.09L36.43 13.09ZM46.61 13.23L46.61 13.23Q45.92 13.23 45.34 12.95L45.34 12.95L45.34 12.95Q44.76 12.67 44.42 12.19L44.42 12.19L44.42 12.19Q44.07 11.70 44.07 11.12L44.07 11.12L44.07 11.12Q44.07 10.19 44.83 9.60L44.83 9.60L44.83 9.60Q45.58 9.02 46.89 8.82L46.89 8.82L48.99 8.53L48.99 8.12L48.99 8.12Q48.99 6.68 47.32 6.68L47.32 6.68L47.32 6.68Q46.68 6.68 46.28 6.94L46.28 6.94L46.28 6.94Q45.89 7.20 45.71 7.55L45.71 7.55L45.71 7.55Q45.65 7.69 45.59 7.73L45.59 7.73L45.59 7.73Q45.53 7.78 45.42 7.78L45.42 7.78L44.87 7.78L44.87 7.78Q44.74 7.78 44.65 7.69L44.65 7.69L44.65 7.69Q44.56 7.60 44.56 7.48L44.56 7.48L44.56 7.48Q44.56 7.15 44.86 6.73L44.86 6.73L44.86 6.73Q45.16 6.30 45.79 5.98L45.79 5.98L45.79 5.98Q46.42 5.67 47.33 5.67L47.33 5.67L47.33 5.67Q48.90 5.67 49.58 6.40L49.58 6.40L49.58 6.40Q50.26 7.13 50.26 8.22L50.26 8.22L50.26 12.77L50.26 12.77Q50.26 12.91 50.17 13.00L50.17 13.00L50.17 13.00Q50.08 13.09 49.94 13.09L49.94 13.09L49.32 13.09L49.32 13.09Q49.18 13.09 49.10 13.00L49.10 13.00L49.10 13.00Q49.01 12.91 49.01 12.77L49.01 12.77L49.01 12.15L49.01 12.15Q48.71 12.61 48.12 12.92L48.12 12.92L48.12 12.92Q47.53 13.23 46.61 13.23L46.61 13.23ZM46.89 12.21L46.89 12.21Q47.81 12.21 48.40 11.61L48.40 11.61L48.40 11.61Q48.99 11.00 48.99 9.86L48.99 9.86L48.99 9.46L47.35 9.70L47.35 9.70Q46.34 9.84 45.82 10.18L45.82 10.18L45.82 10.18Q45.30 10.51 45.30 11.02L45.30 11.02L45.30 11.02Q45.30 11.59 45.77 11.90L45.77 11.90L45.77 11.90Q46.24 12.21 46.89 12.21L46.89 12.21ZM55.09 13.09L55.09 13.09Q52.92 13.09 52.92 10.64L52.92 10.64L52.92 6.89L51.81 6.89L51.81 6.89Q51.67 6.89 51.59 6.80L51.59 6.80L51.59 6.80Q51.51 6.72 51.51 6.58L51.51 6.58L51.51 6.13L51.51 6.13Q51.51 5.99 51.59 5.90L51.59 5.90L51.59 5.90Q51.67 5.81 51.81 5.81L51.81 5.81L52.92 5.81L52.92 3.47L52.92 3.47Q52.92 3.33 53.00 3.24L53.00 3.24L53.00 3.24Q53.09 3.15 53.23 3.15L53.23 3.15L53.84 3.15L53.84 3.15Q53.98 3.15 54.08 3.24L54.08 3.24L54.08 3.24Q54.17 3.33 54.17 3.47L54.17 3.47L54.17 5.81L55.90 5.81L55.90 5.81Q56.04 5.81 56.13 5.90L56.13 5.90L56.13 5.90Q56.22 5.99 56.22 6.13L56.22 6.13L56.22 6.58L56.22 6.58Q56.22 6.72 56.13 6.80L56.13 6.80L56.13 6.80Q56.04 6.89 55.90 6.89L55.90 6.89L54.17 6.89L54.17 10.54L54.17 10.54Q54.17 11.26 54.40 11.62L54.40 11.62L54.40 11.62Q54.63 11.98 55.19 11.98L55.19 11.98L56.04 11.98L56.04 11.98Q56.18 11.98 56.27 12.07L56.27 12.07L56.27 12.07Q56.35 12.17 56.35 12.31L56.35 12.31L56.35 12.77L56.35 12.77Q56.35 12.91 56.27 13.00L56.27 13.00L56.27 13.00Q56.18 13.09 56.04 13.09L56.04 13.09L55.09 13.09Z"></path></g><defs data-v-fde0c5aa=""><linearGradient data-v-fde0c5aa="" gradientTransform="rotate(25)" id="8284080f-6649-48f7-9884-77b949760c52" x1="0%" y1="0%" x2="100%" y2="0%"><stop data-v-fde0c5aa="" offset="0%" stop-color="#0015D6" stop-opacity="1"></stop><stop data-v-fde0c5aa="" offset="100%" stop-color="#0989FB" stop-opacity="1"></stop></linearGradient></defs><g data-v-fde0c5aa="" id="9f3eaf1e-b56a-4430-8905-abac10e7d3bc" stroke="none" fill="url(#8284080f-6649-48f7-9884-77b949760c52)" transform="matrix(0.5580614591638297,0,0,0.5580614591638297,41.6312138324734,134.95326758796992)"><path d="M29.221 36.085c0-15.61 16.253-28.314 36.232-28.314 5.447 0 10.613.947 15.254 2.644C74.014-1.436 58.609-9.724 40.669-9.724c-24.077 0-43.592 14.926-43.592 33.339 0 9.31 4.993 17.72 13.032 23.767l-3.183 15.47 14.345-9.385c5.846 2.231 12.427 3.487 19.398 3.487.108 0 .216-.009.323-.009-7.228-5.175-11.771-12.609-11.771-20.86z"></path><path d="M97.077 36.085c0-12.788-13.951-23.195-31.108-23.195S34.852 23.297 34.852 36.085c0 12.789 13.96 23.195 31.117 23.195 3.91 0 7.74-.553 11.392-1.631l9.947 6-1.472-9.778c7.153-4.444 11.241-10.876 11.241-17.786z"></path></g><!----></svg>